<?xml version="1.0" standalone="no"?>
<svg xmlns:xlink="http://www.w3.org/1999/xlink" id="wave" style="transform:rotate(180deg); transition: 0.3s" viewBox="0 0 1440 330" version="1.1" xmlns="http://www.w3.org/2000/svg"><defs><linearGradient id="sw-gradient-0" x1="0" x2="0" y1="1" y2="0"><stop stop-color="rgba(55.013, 55.013, 55.013, 1)" offset="0%"/><stop stop-color="rgba(164.299, 164.299, 164.299, 1)" offset="100%"/></linearGradient></defs><path style="transform:translate(0, 0px); opacity:1" fill="url(#sw-gradient-0)" d="M0,297L20,286C40,275,80,253,120,203.5C160,154,200,77,240,38.5C280,0,320,0,360,27.5C400,55,440,110,480,132C520,154,560,143,600,121C640,99,680,66,720,49.5C760,33,800,33,840,71.5C880,110,920,187,960,220C1000,253,1040,242,1080,209C1120,176,1160,121,1200,93.5C1240,66,1280,66,1320,71.5C1360,77,1400,88,1440,104.5C1480,121,1520,143,1560,137.5C1600,132,1640,99,1680,93.5C1720,88,1760,110,1800,126.5C1840,143,1880,154,1920,154C1960,154,2000,143,2040,132C2080,121,2120,110,2160,137.5C2200,165,2240,231,2280,247.5C2320,264,2360,231,2400,231C2440,231,2480,264,2520,258.5C2560,253,2600,209,2640,165C2680,121,2720,77,2760,71.5C2800,66,2840,99,2860,115.5L2880,132L2880,330L2860,330C2840,330,2800,330,2760,330C2720,330,2680,330,2640,330C2600,330,2560,330,2520,330C2480,330,2440,330,2400,330C2360,330,2320,330,2280,330C2240,330,2200,330,2160,330C2120,330,2080,330,2040,330C2000,330,1960,330,1920,330C1880,330,1840,330,1800,330C1760,330,1720,330,1680,330C1640,330,1600,330,1560,330C1520,330,1480,330,1440,330C1400,330,1360,330,1320,330C1280,330,1240,330,1200,330C1160,330,1120,330,1080,330C1040,330,1000,330,960,330C920,330,880,330,840,330C800,330,760,330,720,330C680,330,640,330,600,330C560,330,520,330,480,330C440,330,400,330,360,330C320,330,280,330,240,330C200,330,160,330,120,330C80,330,40,330,20,330L0,330Z"/><defs><linearGradient id="sw-gradient-1" x1="0" x2="0" y1="1" y2="0"><stop stop-color="rgba(0, 0, 0, 1)" offset="0%"/><stop stop-color="rgba(189.343, 188.194, 185.655, 1)" offset="100%"/></linearGradient></defs><path style="transform:translate(0, 50px); opacity:0.9" fill="url(#sw-gradient-1)" d="M0,231L20,198C40,165,80,99,120,66C160,33,200,33,240,77C280,121,320,209,360,242C400,275,440,253,480,214.5C520,176,560,121,600,115.5C640,110,680,154,720,181.5C760,209,800,220,840,192.5C880,165,920,99,960,82.5C1000,66,1040,99,1080,104.5C1120,110,1160,88,1200,82.5C1240,77,1280,88,1320,99C1360,110,1400,121,1440,110C1480,99,1520,66,1560,77C1600,88,1640,143,1680,181.5C1720,220,1760,242,1800,253C1840,264,1880,264,1920,242C1960,220,2000,176,2040,176C2080,176,2120,220,2160,198C2200,176,2240,88,2280,82.5C2320,77,2360,154,2400,192.5C2440,231,2480,231,2520,242C2560,253,2600,275,2640,280.5C2680,286,2720,275,2760,253C2800,231,2840,198,2860,181.5L2880,165L2880,330L2860,330C2840,330,2800,330,2760,330C2720,330,2680,330,2640,330C2600,330,2560,330,2520,330C2480,330,2440,330,2400,330C2360,330,2320,330,2280,330C2240,330,2200,330,2160,330C2120,330,2080,330,2040,330C2000,330,1960,330,1920,330C1880,330,1840,330,1800,330C1760,330,1720,330,1680,330C1640,330,1600,330,1560,330C1520,330,1480,330,1440,330C1400,330,1360,330,1320,330C1280,330,1240,330,1200,330C1160,330,1120,330,1080,330C1040,330,1000,330,960,330C920,330,880,330,840,330C800,330,760,330,720,330C680,330,640,330,600,330C560,330,520,330,480,330C440,330,400,330,360,330C320,330,280,330,240,330C200,330,160,330,120,330C80,330,40,330,20,330L0,330Z"/></svg>