<?xml version="1.0" standalone="no"?>
<svg xmlns:xlink="http://www.w3.org/1999/xlink" id="wave" style="transform:rotate(0deg); transition: 0.3s" viewBox="0 0 1440 490" version="1.1" xmlns="http://www.w3.org/2000/svg"><defs><linearGradient id="sw-gradient-0" x1="0" x2="0" y1="1" y2="0"><stop stop-color="rgba(55.013, 55.013, 55.013, 1)" offset="0%"/><stop stop-color="rgba(164.299, 164.299, 164.299, 1)" offset="100%"/></linearGradient></defs><path style="transform:translate(0, 0px); opacity:1" fill="url(#sw-gradient-0)" d="M0,245L26.7,212.3C53.3,180,107,114,160,73.5C213.3,33,267,16,320,40.8C373.3,65,427,131,480,196C533.3,261,587,327,640,351.2C693.3,376,747,359,800,334.8C853.3,310,907,278,960,269.5C1013.3,261,1067,278,1120,277.7C1173.3,278,1227,261,1280,212.3C1333.3,163,1387,82,1440,89.8C1493.3,98,1547,196,1600,236.8C1653.3,278,1707,261,1760,269.5C1813.3,278,1867,310,1920,302.2C1973.3,294,2027,245,2080,220.5C2133.3,196,2187,196,2240,196C2293.3,196,2347,196,2400,171.5C2453.3,147,2507,98,2560,73.5C2613.3,49,2667,49,2720,49C2773.3,49,2827,49,2880,40.8C2933.3,33,2987,16,3040,8.2C3093.3,0,3147,0,3200,0C3253.3,0,3307,0,3360,57.2C3413.3,114,3467,229,3520,285.8C3573.3,343,3627,343,3680,310.3C3733.3,278,3787,212,3813,179.7L3840,147L3840,490L3813.3,490C3786.7,490,3733,490,3680,490C3626.7,490,3573,490,3520,490C3466.7,490,3413,490,3360,490C3306.7,490,3253,490,3200,490C3146.7,490,3093,490,3040,490C2986.7,490,2933,490,2880,490C2826.7,490,2773,490,2720,490C2666.7,490,2613,490,2560,490C2506.7,490,2453,490,2400,490C2346.7,490,2293,490,2240,490C2186.7,490,2133,490,2080,490C2026.7,490,1973,490,1920,490C1866.7,490,1813,490,1760,490C1706.7,490,1653,490,1600,490C1546.7,490,1493,490,1440,490C1386.7,490,1333,490,1280,490C1226.7,490,1173,490,1120,490C1066.7,490,1013,490,960,490C906.7,490,853,490,800,490C746.7,490,693,490,640,490C586.7,490,533,490,480,490C426.7,490,373,490,320,490C266.7,490,213,490,160,490C106.7,490,53,490,27,490L0,490Z"/><defs><linearGradient id="sw-gradient-1" x1="0" x2="0" y1="1" y2="0"><stop stop-color="rgba(0, 0, 0, 1)" offset="0%"/><stop stop-color="rgba(189.343, 188.194, 185.655, 1)" offset="100%"/></linearGradient></defs><path style="transform:translate(0, 50px); opacity:0.9" fill="url(#sw-gradient-1)" d="M0,147L26.7,171.5C53.3,196,107,245,160,285.8C213.3,327,267,359,320,343C373.3,327,427,261,480,269.5C533.3,278,587,359,640,334.8C693.3,310,747,180,800,147C853.3,114,907,180,960,212.3C1013.3,245,1067,245,1120,277.7C1173.3,310,1227,376,1280,351.2C1333.3,327,1387,212,1440,138.8C1493.3,65,1547,33,1600,40.8C1653.3,49,1707,98,1760,122.5C1813.3,147,1867,147,1920,122.5C1973.3,98,2027,49,2080,73.5C2133.3,98,2187,196,2240,245C2293.3,294,2347,294,2400,277.7C2453.3,261,2507,229,2560,253.2C2613.3,278,2667,359,2720,343C2773.3,327,2827,212,2880,155.2C2933.3,98,2987,98,3040,147C3093.3,196,3147,294,3200,326.7C3253.3,359,3307,327,3360,277.7C3413.3,229,3467,163,3520,163.3C3573.3,163,3627,229,3680,269.5C3733.3,310,3787,327,3813,334.8L3840,343L3840,490L3813.3,490C3786.7,490,3733,490,3680,490C3626.7,490,3573,490,3520,490C3466.7,490,3413,490,3360,490C3306.7,490,3253,490,3200,490C3146.7,490,3093,490,3040,490C2986.7,490,2933,490,2880,490C2826.7,490,2773,490,2720,490C2666.7,490,2613,490,2560,490C2506.7,490,2453,490,2400,490C2346.7,490,2293,490,2240,490C2186.7,490,2133,490,2080,490C2026.7,490,1973,490,1920,490C1866.7,490,1813,490,1760,490C1706.7,490,1653,490,1600,490C1546.7,490,1493,490,1440,490C1386.7,490,1333,490,1280,490C1226.7,490,1173,490,1120,490C1066.7,490,1013,490,960,490C906.7,490,853,490,800,490C746.7,490,693,490,640,490C586.7,490,533,490,480,490C426.7,490,373,490,320,490C266.7,490,213,490,160,490C106.7,490,53,490,27,490L0,490Z"/></svg>